<svg xmlns="http://www.w3.org/2000/svg" width="1365.333" height="1365.333" version="1.0" viewBox="0 0 1024 1024"><path d="M493.5 194c-57.5 5.9-111.2 27.5-154.8 62.6-25.1 20.1-41.5 38.3-59.3 65.5-26.8 41.3-43.1 86.8-47.5 132.4-1.5 15.6-1.5 47.2 0 60.5 3.3 29.7 12.7 62 25.9 89.4 10.4 21.3 15.9 30.5 30.6 50.1 25.5 34.2 57.7 61 97.1 81.2 21.9 11.1 34.3 16.1 54.2 21.9 40 11.5 83 14.7 120.3 8.9 39.5-6.1 63-13.6 95.9-30.6 45.3-23.4 77.8-52.6 107.6-96.9 24.6-36.4 40.2-79.2 45.6-124.5 1.6-13.1 1.6-47.8 0-63-2.2-21.8-9-50.2-16.8-70.5-10.4-27-32.8-65.1-51.1-87-24.6-29.3-56.4-54.1-91.7-71.4-28.8-14.2-56.7-22.6-89-27.1-13.2-1.9-54.3-2.7-67-1.5m60.2 49.5c14.5 1.9 28 5.1 44.3 10.6 50.8 16.9 90.4 46.8 122.7 92.4 29.6 41.9 44 91.5 41.9 144.4-1.4 35.7-7.5 61.7-22 93.4-18.4 40.1-54.1 79.6-94.1 104-45.9 27.9-97.1 39.9-145.9 34.2-53.2-6.2-97.7-24.8-135.8-56.7-47-39.4-74.7-87-84.5-145.3-2.2-13.5-2.5-55.5-.5-70 4.1-29 15.9-63.3 30-87.5 16.2-27.7 37.9-53 59.8-69.7 35.9-27.3 76.3-43.9 122.4-50.2 11.2-1.5 48.7-1.3 61.7.4"/><path d="M502.5 267.6c-51.1 5.3-101.5 28.6-135.9 63-25.7 25.8-45.4 58.9-55 92.7-16 56-8.9 115.6 19.7 165.2 24.2 42 63.7 75.7 111.3 95 11.2 4.5 44.1 12.9 56.5 14.5 5.2.6 14.4 1 20.4.8l11-.3.6-29.7c.3-16.4.8-30 1.1-30.3.3-.4 2.9.1 5.7 1.1 5 1.6 10.8 1.5 16.7-.2 2-.5 2.1-.1 2.7 8.7.4 5.1.7 18.2.7 29.1 0 19.9 0 19.9 2.1 19.3 1.2-.4 5.8-1.7 10.3-3 4.4-1.2 11.8-3.3 16.3-4.5l8.1-2.3.2-82.5c0-45.5.3-82.8.5-83 .3-.3 1.1 0 1.9.7 2.6 2.2 12.2 3.1 17.6 1.7l5-1.3v75.8c0 56.7.3 75.9 1.2 75.9 1.7 0 12-6.1 24.8-14.7l11.5-7.8.5-109.7c.3-60.3.8-110 1.2-110.4s2.8-.1 5.3.6c3 .8 7.2 1.1 12.3.6l7.7-.6v95.2c0 72.9.3 95.2 1.2 95.5 1.8.6 21.9-26.9 26.8-36.8 9.3-18.4 17.8-44.2 21.7-65.4 1.9-10.3 2.2-15.8 2.2-38.5.1-28.3-.2-31-5.5-52.9-9.1-37.2-32.3-75.7-62.7-104.1-14.6-13.5-21.2-18.7-33.9-26.3-26.5-15.9-47.6-23.8-77.8-29.3-8.7-1.5-44.6-2.7-54-1.8m34.3 46c44.1 4.4 87.1 39.3 87.2 70.7 0 5.7-2.5 9.9-7.2 12.3-4.2 2.2-14.2 3.5-20.4 2.8l-5.2-.6-8.2-10.9c-14.1-19-29.3-28.2-48.6-29.6-18.8-1.4-34.2 4.1-47.9 16.9-8.4 7.8-12.8 14.2-16.3 23.6-2.1 5.7-2.5 8.7-2.8 20.7l-.3 14 27.7-.3c30.9-.4 37.5.3 43.7 4.6 5.7 4 7.7 7.9 7.6 15.3 0 7.3-2.8 12.3-9.1 16.5-5.7 3.8-15.1 4.6-44.7 3.8l-25.3-.7v5.9c0 3.3.3 9.5.6 13.9l.7 8h30.6c29.4 0 30.8.1 34.6 2.2 8 4.3 12.8 11.7 12.7 19.8-.1 6.3-2.1 11.1-6.4 15.1-6.2 5.9-5.6 5.8-40.2 5.9h-31.9l.2 35.6c.3 39.6.3 39.7-6.4 46.2-7.9 7.7-17.1 9.6-25.9 5.3-5.7-2.8-8.9-6.5-12.8-15.1-2.2-4.9-2.3-6-2.6-38.9l-.3-33.9-18.7.7c-15.2.5-19.6.4-23.7-.8-12.1-3.7-19.2-19.4-13.6-30.4 2.3-4.5 4.2-6.2 10.1-9.3 4.3-2.3 5.4-2.4 25.2-2.4h20.7l.3-13.2.3-13.1-8.5-.7c-4.7-.3-14.4-.5-21.6-.3-12.9.3-13.1.2-17.3-2.5-4.7-3.1-9.8-10.4-10.7-15.3-1.3-6.8 4-15.4 12-19.7 3.8-2.1 5.4-2.2 24.7-2.2h20.7l.5-17c.9-28.1 6-44.8 19.3-62.7C457 330.5 483 316 512.5 313c7.7-.7 12.1-.6 24.3.6M676.4 394c4.3 1.6 10.5 8 11.7 12 1 3.2.9 4.4-.7 7.7-2.2 4.3-8.8 8.3-14 8.3-4.9 0-11.6-3.3-15.3-7.5-2.9-3.3-3.3-4.3-2.8-7.8 1.3-9.9 11.9-16.2 21.1-12.7m-59.2 90c8.4 5.6 10 14.1 3.8 20.5-4.2 4.3-9.5 5.8-15.5 4.5-9.5-2.1-14.5-6.6-14.5-12.9 0-12.9 14.7-19.7 26.2-12.1m-68.4 108.6c10 4.1 15.1 14.8 10.6 22.3-2 3.4-7.7 7.1-12 7.8-4.6.8-12.6-2.3-16.9-6.5-3-3-3.5-4.1-3.5-8.2 0-6 4-11.8 10.1-14.8 5.2-2.6 6.8-2.7 11.7-.6"/></svg>