<?xml version="1.0" standalone="no"?>
<!DOCTYPE svg PUBLIC "-//W3C//DTD SVG 20010904//EN"
 "http://www.w3.org/TR/2001/REC-SVG-20010904/DTD/svg10.dtd">
<svg version="1.0" xmlns="http://www.w3.org/2000/svg"
 width="1024.000000pt" height="1024.000000pt" viewBox="0 0 1024.000000 1024.000000"
 preserveAspectRatio="xMidYMid meet">

<g transform="translate(0.000000,1024.000000) scale(0.100000,-0.100000)"
fill="#000000" stroke="none">
<path d="M4935 8300 c-575 -59 -1112 -275 -1548 -626 -251 -201 -415 -383
-593 -655 -268 -413 -431 -868 -475 -1324 -15 -156 -15 -472 0 -605 33 -297
127 -620 259 -894 104 -213 159 -305 306 -501 255 -342 577 -610 971 -812 219
-111 343 -161 542 -219 400 -115 830 -147 1203 -89 395 61 630 136 959 306
453 234 778 526 1076 969 246 364 402 792 456 1245 16 131 16 478 0 630 -22
218 -90 502 -168 705 -104 270 -328 651 -511 870 -246 293 -564 541 -917 714
-288 142 -567 226 -890 271 -132 19 -543 27 -670 15z m602 -495 c145 -19 280
-51 443 -106 508 -169 904 -468 1227 -924 296 -419 440 -915 419 -1444 -14
-357 -75 -617 -220 -934 -184 -401 -541 -796 -941 -1040 -459 -279 -971 -399
-1459 -342 -532 62 -977 248 -1358 567 -470 394 -747 870 -845 1453 -22 135
-25 555 -5 700 41 290 159 633 300 875 162 277 379 530 598 697 359 273 763
439 1224 502 112 15 487 13 617 -4z"/>
<path d="M5025 7564 c-511 -53 -1015 -286 -1359 -630 -257 -258 -454 -589
-550 -927 -160 -560 -89 -1156 197 -1652 242 -420 637 -757 1113 -950 112 -45
441 -129 565 -145 52 -6 144 -10 204 -8 l110 3 6 297 c3 164 8 300 11 303 3 4
29 -1 57 -11 50 -16 108 -15 167 2 20 5 21 1 27 -87 4 -51 7 -182 7 -291 0
-199 0 -199 21 -193 12 4 58 17 103 30 44 12 118 33 163 45 l81 23 2 825 c0
455 3 828 5 830 3 3 11 0 19 -7 26 -22 122 -31 176 -17 l50 13 0 -758 c0 -567
3 -759 12 -759 17 0 120 61 248 147 l115 78 5 1097 c3 603 8 1100 12 1104 4 4
28 1 53 -6 30 -8 72 -11 123 -6 l77 6 0 -952 c0 -729 3 -952 12 -955 18 -6
219 269 268 368 93 184 178 442 217 654 19 103 22 158 22 385 1 283 -2 310
-55 529 -91 372 -323 757 -627 1041 -146 135 -212 187 -339 263 -265 159 -476
238 -778 293 -87 15 -446 27 -540 18z m343 -460 c441 -44 871 -393 872 -707 0
-57 -25 -99 -72 -123 -42 -22 -142 -35 -204 -28 l-52 6 -82 109 c-141 190
-293 282 -486 296 -188 14 -342 -41 -479 -169 -84 -78 -128 -142 -163 -236
-21 -57 -25 -87 -28 -207 l-3 -140 277 3 c309 4 375 -3 437 -46 57 -40 77 -79
76 -153 0 -73 -28 -123 -91 -165 -57 -38 -151 -46 -447 -38 l-253 7 0 -59 c0
-33 3 -95 6 -139 l7 -80 306 0 c294 0 308 -1 346 -22 80 -43 128 -117 127
-198 -1 -63 -21 -111 -64 -151 -62 -59 -56 -58 -402 -59 l-319 0 2 -356 c3
-396 3 -397 -64 -462 -79 -77 -171 -96 -259 -53 -57 28 -89 65 -128 151 -22
49 -23 60 -26 389 l-3 339 -187 -7 c-152 -5 -196 -4 -237 8 -121 37 -192 194
-136 304 23 45 42 62 101 93 43 23 54 24 252 24 l207 0 3 132 3 131 -85 7
c-47 3 -144 5 -216 3 -129 -3 -131 -2 -173 25 -47 31 -98 104 -107 153 -13 68
40 154 120 197 38 21 54 22 247 22 l207 0 5 170 c9 281 60 448 193 627 174
233 434 378 729 408 77 7 121 6 243 -6z m1396 -804 c43 -16 105 -80 117 -120
10 -32 9 -44 -7 -77 -22 -43 -88 -83 -140 -83 -49 0 -116 33 -153 75 -29 33
-33 43 -28 78 13 99 119 162 211 127z m-592 -900 c84 -56 100 -141 38 -205
-42 -43 -95 -58 -155 -45 -95 21 -145 66 -145 129 0 129 147 197 262 121z
m-684 -1086 c100 -41 151 -148 106 -223 -20 -34 -77 -71 -120 -78 -46 -8 -126
23 -169 65 -30 30 -35 41 -35 82 0 60 40 118 101 148 52 26 68 27 117 6z"/>
</g>
</svg>
